<svg xmlns="http://www.w3.org/2000/svg" version="1.1" xmlns:xlink="http://www.w3.org/1999/xlink" width="324.307271379456" height="200" viewBox="-0.5299999713897705 8.95878791809082 68.16999816894531 38.207366943359375"><path d="M0.64 40.40L-0.48 41.52Q-0.48 40.76-0.52 40.30Q-0.56 39.84-0.44 39.12Q-0.32 38.40-0.26 38Q-0.20 37.60 0 36.92L0 36.92L0.32 35.84Q0.44 35.48 0.72 34.80L0.72 34.80L1.12 33.76L1.56 32.64Q1.84 31.96 2.04 31.52L2.04 31.52L3.16 30.40Q3.16 30.52 2.90 33.70Q2.64 36.88 2.84 39.16Q3.04 41.44 3.96 41.72L3.96 41.72Q4.28 41.80 4.58 41.60Q4.88 41.40 5.24 41Q5.60 40.60 5.80 40.48L5.80 40.48L4.68 41.60Q4.48 41.76 4.12 42.14Q3.76 42.52 3.46 42.72Q3.16 42.92 2.84 42.84L2.84 42.84Q2.24 42.68 1.94 41.74Q1.64 40.80 1.66 39.10Q1.68 37.40 1.72 36.36Q1.76 35.32 1.92 33.48L1.92 33.48Q0.44 37.32 0.64 40.40L0.64 40.40ZM1.96 26.88Q2.20 27.12 2.20 27.44Q2.20 27.76 1.96 28Q1.72 28.24 1.40 28.24Q1.08 28.24 0.84 28Q0.60 27.76 0.60 27.44Q0.60 27.12 0.84 26.88Q1.08 26.64 1.40 26.64Q1.72 26.64 1.96 26.88ZM5.88 38.68L5.88 38.68Q8.32 38.24 12.72 37.12L12.72 37.12Q12.80 37.08 12.90 36.96Q13 36.84 13.08 36.76Q13.16 36.68 13.22 36.60Q13.28 36.52 13.28 36.48Q13.28 36.44 13.20 36.40L13.20 36.40Q10.32 35.76 5.88 38.68ZM14.68 37.48L12.56 38.04Q12.08 38.88 11.76 39.72L11.76 39.72L10.64 40.84Q11.08 39.64 12.04 38.16L12.04 38.16Q6.84 39.48 4.16 39.92L4.16 39.92L5.28 38.80Q10.92 34.52 14.32 35.28L14.32 35.28Q14.44 35.36 14.38 35.46Q14.32 35.56 14.08 35.80L14.08 35.80L13.76 36.12L13.16 37.04L15.80 36.36L14.68 37.48ZM20.72 37.40L20.72 37.40Q22.52 35.60 22.68 35.72L22.68 35.72Q22.76 35.92 22.72 36.46Q22.68 37 22.60 37.68L22.60 37.68L22.52 38.36Q22.56 38.92 22.66 39.20Q22.76 39.48 22.98 39.60Q23.20 39.72 23.42 39.74Q23.64 39.76 24.16 39.76Q24.68 39.76 25.12 39.84L25.12 39.84L24 40.96Q23.56 40.92 23.04 40.90Q22.52 40.88 22.30 40.88Q22.08 40.88 21.84 40.76Q21.60 40.64 21.52 40.34Q21.44 40.04 21.40 39.48L21.40 39.48L21.48 38.80Q21.56 38.12 21.60 37.58Q21.64 37.04 21.56 36.84L21.56 36.84Q21.44 36.76 20.72 37.40ZM16.08 35.92L16.88 34.04L18 32.92Q17.92 33.12 17.74 33.50Q17.56 33.88 17.44 34.20Q17.32 34.52 17.20 34.80L17.20 34.80Q17.04 35.28 16.64 36.68L16.64 36.68Q16 38.96 16.08 39.56L16.08 39.56Q16.36 41.68 19.72 38.40L19.72 38.40Q16.68 41.52 15.68 41.56L15.68 41.56Q15.08 41.60 14.96 40.68L14.96 40.68Q14.88 40.08 15.52 37.80L15.52 37.80Q15.88 36.40 16.08 35.92L16.08 35.92ZM30.04 37.40L30.04 37.40Q31.84 35.60 32 35.72L32 35.72Q32.08 35.92 32.04 36.46Q32 37 31.92 37.68L31.92 37.68L31.84 38.36Q31.88 38.92 31.98 39.20Q32.08 39.48 32.30 39.60Q32.52 39.72 32.74 39.74Q32.96 39.76 33.48 39.76Q34 39.76 34.44 39.84L34.44 39.84L33.32 40.96Q32.88 40.92 32.36 40.90Q31.84 40.88 31.62 40.88Q31.40 40.88 31.16 40.76Q30.92 40.64 30.84 40.34Q30.76 40.04 30.72 39.48L30.72 39.48L30.80 38.80Q30.88 38.12 30.92 37.58Q30.96 37.04 30.88 36.84L30.88 36.84Q30.76 36.76 30.04 37.40ZM25.40 35.92L26.20 34.04L27.32 32.92Q27.24 33.12 27.06 33.50Q26.88 33.88 26.76 34.20Q26.64 34.52 26.52 34.80L26.52 34.80Q26.36 35.28 25.96 36.68L25.96 36.68Q25.32 38.96 25.40 39.56L25.40 39.56Q25.68 41.68 29.04 38.40L29.04 38.40Q26 41.52 25 41.56L25 41.56Q24.40 41.60 24.28 40.68L24.28 40.68Q24.20 40.08 24.84 37.80L24.84 37.80Q25.20 36.40 25.40 35.92L25.40 35.92ZM52.64 19.24L52.64 19.24Q48.24 19.24 44.52 20.76L44.52 20.76Q45.36 22.64 46.90 24.18Q48.44 25.72 50.28 26.38Q52.12 27.04 53.96 26.28L53.96 26.28Q55.08 22.92 52.64 19.24ZM61.20 30.32L61.20 30.32Q63.12 27.56 63.56 25.50Q64 23.44 62.98 22.14Q61.96 20.84 59.84 20.14Q57.72 19.44 54.44 19.28L54.44 19.28Q56.20 22.72 54.84 25.76L54.84 25.76L53.72 26.88Q51.72 28.24 49.60 27.64Q47.48 27.04 45.72 25.26Q43.96 23.48 43.16 21.36L43.16 21.36Q40.28 22.76 36.64 25.68L36.64 25.68L36.84 26Q40.36 30.76 44.20 32.98Q48.04 35.20 52.42 34.62Q56.80 34.04 61.20 30.32ZM33.52 28.80L34.64 27.32L35.36 26.60Q34.32 25.24 33.62 24.16Q32.92 23.08 32.10 21.60Q31.28 20.12 30.94 18.82Q30.60 17.52 30.50 16.12Q30.40 14.72 30.88 13.34Q31.36 11.96 32.44 10.72L32.44 10.72L33.56 9.60Q35.68 8.68 38.56 9.08Q41.44 9.48 44.28 10.66Q47.12 11.84 49.70 13.84Q52.28 15.84 53.76 18.08L53.76 18.08Q54.40 18.08 55.08 18.12L55.08 18.12Q58.56 18.24 60.80 18.94Q63.04 19.64 64.10 21Q65.16 22.36 64.66 24.50Q64.16 26.64 62.08 29.56L62.08 29.56L60.96 30.68Q56.36 34.84 51.84 35.66Q47.32 36.48 43.32 34.26Q39.32 32.04 35.72 27.12L35.72 27.12L35.40 26.68Q35.20 26.96 34.42 27.96Q33.64 28.96 33.20 29.62Q32.76 30.28 32.36 30.96L32.36 30.96Q29.52 36.24 30.60 40.12L30.60 40.12Q31.20 42.16 32.76 43.48Q34.32 44.80 36.16 45.38Q38 45.96 40.72 46Q43.44 46.04 45.54 45.84Q47.64 45.64 50.56 45.02Q53.48 44.40 54.88 44.04Q56.28 43.68 58.40 43.08L58.40 43.08Q58.64 43.04 58.76 43L58.76 43L67.64 40.40L66.52 41.52L57.64 44.12L57.28 44.24L53.76 45.20Q52.36 45.56 49.44 46.16Q46.52 46.76 44.42 46.98Q42.32 47.20 39.60 47.16Q36.88 47.12 35.02 46.52Q33.16 45.92 31.60 44.60Q30.04 43.28 29.48 41.24L29.48 41.24Q28.36 37.36 31.24 32.08L31.24 32.08Q31.64 31.32 32.24 30.52L32.24 30.52L33.52 28.80ZM42.76 19.40L42.76 19.40L43.88 18.28Q43.92 19.20 44.32 20.24L44.32 20.24Q47.88 18.48 51.88 18.16L51.88 18.16Q50.24 16.16 47.80 14.42Q45.36 12.68 42.74 11.62Q40.12 10.56 37.48 10.20Q34.84 9.84 32.84 10.56L32.84 10.56Q31.92 12 31.72 13.64Q31.52 15.28 31.82 16.70Q32.12 18.12 32.96 19.84Q33.80 21.56 34.58 22.76Q35.36 23.96 36.52 25.56L36.52 25.56Q40.32 22.40 43.04 20.92L43.04 20.92Q42.80 20.12 42.76 19.40Z" fill="black"></path></svg>