<svg xmlns="http://www.w3.org/2000/svg" version="1.1" xmlns:xlink="http://www.w3.org/1999/xlink" width="339.0684958429197" height="200" viewBox="0.7199999690055847 12.079999923706055 54.7599983215332 28.19877052307129"><path d="M2.24 22.40L2.24 22.40Q2.64 22.32 2.72 22.88Q2.80 23.44 2.56 23.72L2.56 23.72Q2.12 24.08 2 24.34Q1.88 24.60 1.44 24.68L1.44 24.68Q1.20 24.64 1.02 24.66Q0.84 24.68 0.72 24L0.72 24Q0.88 23.56 1.22 23.12Q1.56 22.68 2.24 22.40ZM2.36 27.60L2.36 27.60Q2.56 29.52 2.64 31.82Q2.72 34.12 2.92 36.64L2.92 36.64Q3.08 37.92 3.24 38.64Q3.40 39.36 3.48 40L3.48 40Q2.84 40.12 2.48 39.98Q2.12 39.84 1.80 39.64L1.80 39.64Q1.72 39 1.62 37.52Q1.52 36.04 1.42 34.30Q1.32 32.56 1.22 30.92Q1.12 29.28 1.04 28.32L1.04 28.32Q1.20 28.24 1.30 28.08Q1.40 27.92 1.52 27.80Q1.64 27.68 1.84 27.60Q2.04 27.52 2.36 27.60ZM14.36 28.24L14.36 28.24Q14.32 28.48 14.18 29.24Q14.04 30 13.88 31.02Q13.72 32.04 13.60 33.16Q13.48 34.28 13.46 35.28Q13.44 36.28 13.58 36.98Q13.72 37.68 14.04 37.84L14.04 37.84Q14.96 38.28 15.92 37.54Q16.88 36.80 18.16 35.28L18.16 35.28Q18.28 35.28 18.18 35.60Q18.08 35.92 17.86 36.30Q17.64 36.68 17.42 37.06Q17.20 37.44 17.08 37.56L17.08 37.56Q16.76 37.96 16.16 38.46Q15.56 38.96 14.88 39.26Q14.20 39.56 13.58 39.52Q12.96 39.48 12.56 38.80L12.56 38.80Q12.36 38.32 12.32 37.62Q12.28 36.92 12.32 36.20Q12.36 35.48 12.44 34.88Q12.52 34.28 12.56 34L12.56 34Q11.72 35.56 10.64 36.96Q9.56 38.36 8.52 39.16Q7.48 39.96 6.60 40.02Q5.72 40.08 5.24 39L5.24 39Q4.96 37.96 5.24 36.66Q5.52 35.36 6.08 34.32L6.08 34.32Q6.92 32.88 7.84 31.68Q8.76 30.48 9.80 29.64Q10.84 28.80 11.98 28.42Q13.12 28.04 14.36 28.24ZM6.84 38.40L6.84 38.40Q7.24 38.48 8.12 37.80Q9 37.12 9.96 35.90Q10.92 34.68 11.70 33.06Q12.48 31.44 12.72 29.64L12.72 29.64Q12.56 29.64 12.26 29.64Q11.96 29.64 11.56 29.88L11.56 29.88Q10.04 30.88 8.96 32.22Q7.88 33.56 7.28 34.82Q6.68 36.08 6.56 37.08Q6.44 38.08 6.84 38.40ZM19.36 27.80L19.36 27.80Q19.36 28.92 19.34 30.04Q19.32 31.16 19.30 32.20Q19.28 33.24 19.26 34.16Q19.24 35.08 19.20 35.80L19.20 35.80Q19.20 35.64 19.38 35.02Q19.56 34.40 19.88 33.60Q20.20 32.80 20.58 31.90Q20.96 31 21.40 30.30Q21.84 29.60 22.30 29.20Q22.76 28.80 23.16 28.96L23.16 28.96Q24.04 29.36 24.40 30.12Q24.76 30.88 24.92 31.86Q25.08 32.84 25.24 34.04Q25.40 35.24 25.96 36.56L25.96 36.56Q26.20 37.16 26.66 37.44Q27.12 37.72 27.54 37.84Q27.96 37.96 28.22 37.98Q28.48 38 28.40 38.12L28.40 38.12Q27.40 38.88 26.68 38.64Q25.96 38.40 25.46 37.58Q24.96 36.76 24.64 35.62Q24.32 34.48 24.06 33.42Q23.80 32.36 23.60 31.62Q23.40 30.88 23.16 30.88L23.16 30.88Q22.80 30.92 22.38 31.56Q21.96 32.20 21.52 33.16Q21.08 34.12 20.68 35.26Q20.28 36.40 19.94 37.40Q19.60 38.40 19.40 39.12Q19.20 39.84 19.16 40L19.16 40Q18.56 40 18.42 40.04Q18.28 40.08 17.96 39.64L17.96 39.64Q18.16 36.12 18.10 32.98Q18.04 29.84 17.92 27.52L17.92 27.52Q17.92 27.16 18.10 27.16Q18.28 27.16 18.50 27.32Q18.72 27.48 18.96 27.64Q19.20 27.80 19.36 27.80ZM29.92 27.80L29.92 27.80Q29.92 28.92 29.90 30.04Q29.88 31.16 29.86 32.20Q29.84 33.24 29.82 34.16Q29.80 35.08 29.76 35.80L29.76 35.80Q29.76 35.64 29.94 35.02Q30.12 34.40 30.44 33.60Q30.76 32.80 31.14 31.90Q31.52 31 31.96 30.30Q32.40 29.60 32.86 29.20Q33.32 28.80 33.72 28.96L33.72 28.96Q34.60 29.36 34.96 30.12Q35.32 30.88 35.48 31.86Q35.64 32.84 35.80 34.04Q35.96 35.24 36.52 36.56L36.52 36.56Q36.76 37.16 37.22 37.44Q37.68 37.72 38.10 37.84Q38.52 37.96 38.78 37.98Q39.04 38 38.96 38.12L38.96 38.12Q37.96 38.88 37.24 38.64Q36.52 38.40 36.02 37.58Q35.52 36.76 35.20 35.62Q34.88 34.48 34.62 33.42Q34.36 32.36 34.16 31.62Q33.96 30.88 33.72 30.88L33.72 30.88Q33.36 30.92 32.94 31.56Q32.52 32.20 32.08 33.16Q31.64 34.12 31.24 35.26Q30.84 36.40 30.50 37.40Q30.16 38.40 29.96 39.12Q29.76 39.84 29.72 40L29.72 40Q29.12 40 28.98 40.04Q28.84 40.08 28.52 39.64L28.52 39.64Q28.72 36.12 28.66 32.98Q28.60 29.84 28.48 27.52L28.48 27.52Q28.48 27.16 28.66 27.16Q28.84 27.16 29.06 27.32Q29.28 27.48 29.52 27.64Q29.76 27.80 29.92 27.80ZM52.84 13.20L52.84 13.20Q52.52 13.32 51.50 13.56Q50.48 13.80 49.08 14.56Q47.68 15.32 46.14 16.78Q44.60 18.24 43.28 20.76L43.28 20.76Q42.84 21.68 42.42 23.14Q42 24.60 41.68 26.02Q41.36 27.44 41.18 28.48Q41 29.52 41.08 29.52L41.08 29.52Q40.80 32.24 41.06 33.92Q41.32 35.60 41.88 36.56Q42.44 37.52 43.20 37.90Q43.96 38.28 44.68 38.34Q45.40 38.40 45.98 38.26Q46.56 38.12 46.72 38.12L46.72 38.12Q47.88 37.64 48.94 36.84Q50 36.04 50.92 35.02Q51.84 34 52.60 32.80Q53.36 31.60 53.96 30.32L53.96 30.32Q54.12 30.12 54.38 29.92Q54.64 29.72 54.88 29.58Q55.12 29.44 55.30 29.42Q55.48 29.40 55.48 29.56L55.48 29.56Q54.80 31.76 53.58 33.56Q52.36 35.36 50.94 36.72Q49.52 38.08 48.06 38.96Q46.60 39.84 45.40 40.20L45.40 40.20Q43.68 40.52 42.18 39.54Q40.68 38.56 39.80 35.84L39.80 35.84Q39.52 34.40 39.38 32.62Q39.24 30.84 39.52 29.08L39.52 29.08Q39.76 25.68 40.76 22.80Q41.76 19.92 43.28 17.70Q44.80 15.48 46.72 14.04Q48.64 12.60 50.72 12.08L50.72 12.08Q50.88 12.08 51.32 12.16Q51.76 12.24 52.18 12.40Q52.60 12.56 52.84 12.76Q53.08 12.96 52.84 13.20Z" fill="black"></path></svg>